<svg viewBox="90 90 1420 1420" xmlns="http://www.w3.org/2000/svg">
  <g fill="#2563eb" fill-opacity="0.9">
    <path d="M137,137 L137,437 L237,437 L237,237 L437,237 L437,137 Z" />
    <path d="M1463,137 L1463,437 L1363,437 L1363,237 L1163,237 L1163,137 Z" />
    <path d="M137,1463 L137,1163 L237,1163 L237,1363 L437,1363 L437,1463 Z" />
    <path d="M1463,1463 L1463,1163 L1363,1163 L1363,1363 L1163,1363 L1163,1463 Z" />
  </g>
  <path fill="#2563eb" d="M 555.0,788.2 L 800.0,1079.2 L 1045.0,788.2 L 1045.0,1222.7 L 1195.0,1222.7 L 1195.0,377.3 L 800.0,846.3 L 405.0,377.3 L 405.0,1222.7 L 555.0,1222.7 L 555.0,788.2 Z" />
</svg>
